<?xml version="1.0" standalone="no"?><!DOCTYPE svg PUBLIC "-//W3C//DTD SVG 1.1//EN" "http://www.w3.org/Graphics/SVG/1.1/DTD/svg11.dtd"><svg t="1609828672762" class="icon" viewBox="0 0 1024 1024" version="1.1" xmlns="http://www.w3.org/2000/svg" p-id="5326" xmlns:xlink="http://www.w3.org/1999/xlink" width="200" height="200"><defs><style type="text/css"></style></defs><path d="M152 612.8h196.8l128 393.6H299.2z" p-id="5327"></path><path d="M120 134.4h411.2S665.6 28.8 728 14.4s102.4 16 102.4 41.6v593.6s-24 76.8-136 20.8c-102.4-60.8-164.8-120-164.8-120H137.6s-81.6 22.4-81.6-78.4V209.6c1.6 0-4.8-75.2 64-75.2zM888 272v198.4s25.6 16 60.8-17.6c0 0 33.6-32 33.6-80 3.2-27.2-4.8-56-33.6-81.6 0 0-30.4-27.2-60.8-19.2z" p-id="5328"></path></svg>