<?xml version="1.0" encoding="utf-8"?>
<!-- Generator: Adobe Illustrator 22.0.0, SVG Export Plug-In . SVG Version: 6.00 Build 0)  -->
<svg version="1.1" id="图层_1" xmlns="http://www.w3.org/2000/svg" xmlns:xlink="http://www.w3.org/1999/xlink" x="0px" y="0px"
	 viewBox="0 0 176 180.6" style="enable-background:new 0 0 176 180.6;" xml:space="preserve">
<path d="M7.5,1.1c3.1,0,5.8,2.3,6.2,5.4l0.1,0.9V174c0,3.5-2.8,6.2-6.3,6.2c-3.1,0-5.8-2.3-6.2-5.4L1.2,174V7.3
	C1.2,3.9,4,1.1,7.5,1.1z"/>
<path d="M90.9,7.3c26,7.8,52,8.3,78.1,1.5c2.2-0.6,4.5,0.7,5.1,3c0.1,0.3,0.1,0.7,0.1,1.1v99.7c0,1.9-1.2,3.5-3.1,4
	c-26.8,7.4-53.5,7.1-80.3-0.9c-27.8-8.3-55.6-8.3-83.3,0V7.3C35.3-1,63.1-1,90.9,7.3z M132.3,33.7c-2.5-1.9-6-1.6-8.2,0.6L78.4,79.9
	l-25-25l-0.6-0.6c-2.7-2.1-6.7-1.6-8.8,1.2c-1.9,2.5-1.7,6,0.6,8.2L74,93.2l0.6,0.6c2.5,1.9,6,1.7,8.2-0.6l50.1-50.1l0.6-0.6
	c1.9-2.5,1.7-6-0.6-8.2L132.3,33.7z"/>
</svg>
