<?xml version="1.0" encoding="utf-8"?>
<!-- Generator: Adobe Illustrator 22.0.0, SVG Export Plug-In . SVG Version: 6.00 Build 0)  -->
<svg version="1.1" id="图层_1" xmlns="http://www.w3.org/2000/svg" xmlns:xlink="http://www.w3.org/1999/xlink" x="0px" y="0px"
	 viewBox="0 0 158.7 164.4" style="enable-background:new 0 0 158.7 164.4;" xml:space="preserve">
<path d="M46.6,163.3c0,0-9-10.2-17.5-18.7c-9.1-2.5-18.2-4.9-27.4-7.1l18.7-32.7c9.9,13,27.2,24.2,43.5,28.3L46.6,163.3z M131.8,143
	c-8.5,8.4-19.1,20.3-19.1,20.3l-17.2-30.2c16.4-4.1,32.1-15.2,41.9-28.3l20.2,32.7C157.6,137.6,143.9,139.6,131.8,143L131.8,143z
	 M79.6,0.8c-32.5,0-60.5,30-60.5,63s28,59.8,60.5,59.8c32.5,0,60.5-28.4,60.5-61.4S112.1,0.8,79.6,0.8z M114.5,59.5L104,70.7
	c-1.4,1.5-2.2,3.6-1.7,5.7v0.2l2.4,15.1c0.2,1.5,0,3-0.7,4.2c-1.8,3.3-5.9,4.6-9.2,2.8l-12.2-6.6c-1.9-1.1-4.3-1.1-6.3,0.2
	l-11.9,6.4c-1.4,0.7-2.8,0.9-4.3,0.7c-3.6-0.6-6.2-4.1-5.6-7.8L57,76c0.2-1.9-0.3-3.7-1.6-5L44.7,59.5c-0.9-1.1-1.6-2.4-1.8-3.8
	c-0.6-3.7,2.1-7.2,5.7-7.7l13.6-2.2c2.2-0.1,4.1-1.5,5-3.5l6.3-13.5c1.1-2.3,3.5-3.9,6.2-3.9c2.6,0,5,1.5,6.2,3.9l6.2,13.4
	c0.9,2.1,2.8,3.5,5.1,3.7l13.6,2.1c1.4,0.2,2.7,0.9,3.8,1.9C117,52.5,117.1,56.9,114.5,59.5L114.5,59.5z"/>
</svg>
