<svg width="1015" height="793" xmlns="http://www.w3.org/2000/svg" class="icon">
 <defs>
  <style type="text/css"/>
 </defs>
 <g>
  <title>background</title>
  <rect fill="none" id="canvas_background" height="795" width="1017" y="-1" x="-1"/>
 </g>
 <g>
  <title>Layer 1</title>
  <path id="svg_1" d="m906.89271,342.407996l-35.94542,-65.03905l-67.40329,121.97647a7.424,7.424 0 0 1 -7.87577,3.70447a7.43906,7.43906 0 0 1 -6.02352,-6.29459l-8.94495,-64l-58.92517,26.48847a7.48423,7.48423 0 0 1 -9.59247,-10.40565l64.01506,-115.81741a146.74823,146.74823 0 0 1 -2.66542,-221.13882c-27.79858,-5.81271 -58.86494,-10.91765 -89.28376,-10.91765c-102.12894,0 -150.46777,41.45694 -161.34024,52.23906c-7.83058,4.11106 -13.97458,10.34541 -18.6127,17.52847l-69.28565,0.46682c-5.82776,-7.46917 -13.056,-13.85411 -21.15765,-17.95011c-11.008,-10.33036 -61.74117,-36.87906 -164.352,-36.87906c-111.73647,0 -211.86258,34.33412 -215.97364,36.38212c-21.08236,10.37552 -32.10541,36.23152 -32.10541,56.38023l0,650.14965c0,8.99012 2.048,16.51953 6.11388,22.34729a26.20235,26.20235 0 0 0 21.82023,11.36941c5.72236,0 11.71577,-1.67153 17.96518,-5.07482c0.85835,-0.46682 86.07623,-31.95482 194.72565,-31.95482c105.45694,0 151.17553,29.75623 151.552,30.14776l2.10823,2.18353l2.80094,1.17459c5.25553,2.2287 10.63153,3.34306 15.99247,3.34306c6.64094,0 17.82965,-0.93365 17.82965,-0.93365l84.07341,-0.512c5.61694,1.11435 13.056,0.82824 22.15153,-3.56894l3.29788,-1.70165l2.15342,-2.78588c0.31623,-0.42165 33.89741,-27.36188 139.776,-27.36188c111.2847,0 204.95058,32.15059 205.77882,32.57223c6.00847,3.13224 12.34823,4.69836 18.47718,4.69836s12.04705,-1.56612 17.21223,-4.69836c9.89365,-5.97835 15.55577,-16.65506 15.55577,-29.27435l0,-355.65929c-0.13553,-0.22589 -0.3313,-0.39153 -0.46683,-0.63247l-33.44564,-60.55154zm-442.15718,419.90024l-4.47247,-661.83529l28.52141,-0.18071l4.47247,661.85035l-28.52141,0.16565z"/>
  <path id="svg_2" d="m956.55671,230.761886a7.22823,7.22823 0 0 1 -0.73789,-4.59294c-2.80094,2.10823 -5.87294,3.82494 -8.83953,5.69223l-2.49976,0.93365a133.01459,133.01459 0 0 0 60.49129,-111.51059a133.19529,133.19529 0 1 0 -266.39058,0a132.92424,132.92424 0 0 0 56.22964,108.57412c-0.12047,0.30117 -0.15059,0.61741 -0.30117,0.91859l-58.4433,105.74306l47.60094,-21.38353a7.43906,7.43906 0 0 1 10.43577,5.76753l7.22823,51.69694l62.25318,-112.68518c0,-2.01788 0.52706,-3.94541 1.29506,-5.78259c2.304,0.12047 4.57788,0.34636 6.89694,0.34636c4.80376,0 9.54729,-0.28612 14.21553,-0.78306a15.05882,15.05882 0 0 1 1.49082,6.21929l62.26824,112.68518l7.22823,-51.69694a7.46918,7.46918 0 0 1 10.43577,-5.76753l47.58588,21.36847l-58.44329,-105.74306zm-111.93224,-143.52565a12.73977,12.73977 0 0 0 9.56235,-6.95718l22.42259,-45.41741l22.39247,45.41741c1.83718,3.74965 5.43624,6.32471 9.56236,6.95718l50.13082,7.27341l-36.24659,35.35812a12.8,12.8 0 0 0 -3.67435,11.27906l8.56847,49.88988l-44.81506,-23.56706a12.72471,12.72471 0 0 0 -11.82118,0l-44.84517,23.56706l8.56847,-49.88988a12.76988,12.76988 0 0 0 -3.67436,-11.27906l-36.24658,-35.35812l50.11576,-7.27341z"/>
 </g>
</svg>