<?xml version="1.0" standalone="no"?><!DOCTYPE svg PUBLIC "-//W3C//DTD SVG 1.1//EN" "http://www.w3.org/Graphics/SVG/1.1/DTD/svg11.dtd"><svg t="1626072325224" class="icon" viewBox="0 0 1024 1024" version="1.1" xmlns="http://www.w3.org/2000/svg" p-id="2662" xmlns:xlink="http://www.w3.org/1999/xlink" width="200" height="200"><defs><style type="text/css"></style></defs><path d="M1005.933663 635.935074c-13.730416-44.081863-39.745942-89.609033-75.878617-134.41355 35.410021-44.081863 61.425547-88.88638 75.155963-131.522935 23.847565 87.441073 23.847565 179.218066 0.722654 265.936485zM226.913197 875.856034c28.183486 0 57.089626-2.890614 84.550459-7.949189 18.788991 50.585745 41.913903 94.667608 70.097388 128.632322-81.659845-23.124912-156.815808-66.484121-216.796048-126.464361 19.511644 3.613267 40.468596 5.781228 62.148201 5.781228z m728.434721-116.347213c-88.88638 156.815808-255.819337 254.37403-435.037403 254.37403-12.285109 0-23.847565-0.722653-35.410021-1.445307-56.366972-20.234298-93.944954-83.827805-117.069866-139.472124-2.16796-5.058574-4.335921-10.839802-6.503881-15.898377 187.167255-45.52717 406.853917-174.159492 537.654199-316.52223 14.45307 18.788991 27.460833 37.577982 37.577981 55.644319 36.855328 65.038814 43.35921 119.96048 18.788991 163.319689z m-641.716302-614.255469c-28.90614-5.058574-57.812279-7.949188-86.718419-7.949188-22.402258 0-42.636556 2.16796-62.148201 5.781228 29.628793-29.628793 63.593507-54.921665 99.726183-76.601271C303.514467 44.081863 344.705716 26.738179 388.064926 15.175723c-29.628793 33.242061-54.921665 77.323924-74.43331 130.077629z m47.695131 12.28511C397.459421 63.593507 450.213126 0.722653 518.865208 0.722653c10.839802 0 20.956951 0.722653 31.796754 0.722654h2.890614c97.558222 7.226535 190.780522 42.636556 268.104446 101.894143l8.671842 7.226534c8.671842 6.503881 16.62103 13.730416 24.570219 20.956952 36.132675 33.242061 66.484121 70.820042 91.776993 112.733945 0.722653 0.722653 1.445307 2.16796 2.167961 2.890614l6.503881 10.839802c22.402258 43.35921 15.898377 96.112915-19.511644 158.983769-10.839802 18.788991-23.124912 37.577982-37.577982 55.644319C766.735356 331.697953 548.494001 203.065632 361.326747 157.538462z m-136.581511 672.790402c-59.257586 0-103.33945-15.175723-130.800282-43.35921C37.577982 699.528582 7.949188 597.634439 10.117149 493.572336c0-4.335921 0-8.671842 0.722653-13.007763v-2.890614c5.781228-88.163726 33.964714-172.714185 81.659845-247.147495 27.460833-29.628793 71.542696-44.804517 132.245589-44.804516 22.402258 0 46.972477 2.16796 71.542696 6.503881-56.366972 186.444601-57.089626 445.154552-1.445307 633.04446-23.124912 2.890614-46.249824 5.058574-70.097389 5.058575z m0 0" fill="" p-id="2663"></path></svg>