<?xml version="1.0" standalone="no"?><!DOCTYPE svg PUBLIC "-//W3C//DTD SVG 1.1//EN" "http://www.w3.org/Graphics/SVG/1.1/DTD/svg11.dtd"><svg t="1629700944081" class="icon" viewBox="0 0 1024 1024" version="1.1" xmlns="http://www.w3.org/2000/svg" p-id="7716" xmlns:xlink="http://www.w3.org/1999/xlink" width="64" height="64"><defs><style type="text/css"></style></defs><path d="M358.0608 1023.488A358.4 358.4 0 0 1 0.0448 665.6a275.2 275.2 0 0 1 5.312-59.008 25.6 25.6 0 0 1 11.456-21.312 23.552 23.552 0 0 1 10.624-4.224 879.104 879.104 0 0 0 296.192-169.92 794.304 794.304 0 0 0 86.976-86.976A858.368 858.368 0 0 0 580.4608 28.224a24.832 24.832 0 0 1 14.144-19.2 29.376 29.376 0 0 1 11.968-3.072 350.464 350.464 0 0 1 58.496-5.376h1.28A358.4 358.4 0 0 1 1024.0448 358.4a267.776 267.776 0 0 1-6.4 64 25.6 25.6 0 0 1-6.976 12.352 23.424 23.424 0 0 1-12.224 8.064 881.408 881.408 0 0 0-253.248 132.992c33.6 3.328 59.648 5.12 77.504 5.12 5.44 0 9.984 0 13.376-0.512l-1.088-3.712v-0.896c4.032 0 8.512 1.024 8.576 2.368s-0.896 1.6-7.36 2.24a129.536 129.536 0 0 0 8.896 23.488c-52.48 8.896-63.232 14.08-62.976 16.832 0.512 6.4 50.624 6.4 52.736 6.4-39.616 51.712-71.424 77.888-94.464 77.888-20.544 0-30.272-21.184-34.816-38.912a180.032 180.032 0 0 1-4.992-38.912 1193.024 1193.024 0 0 0-3.52 176.192 134.4 134.4 0 0 0-24.512 9.152c-8.832-54.848-14.016-66.304-16.768-66.304s-4.48 9.472-5.568 28.096c-0.768 13.888-0.768 27.968-0.768 28.096-9.472-98.048-18.432-110.656-25.152-110.656-3.712 0-7.36 4.416-10.624 8.32a856.512 856.512 0 0 0-171.392 300.8 28.992 28.992 0 0 1-25.6 17.92h-2.624a320.896 320.896 0 0 1-56 4.672z m-248.96-179.2a308.416 308.416 0 0 0 249.024 128 273.728 273.728 0 0 0 36.416-2.176 282.752 282.752 0 0 0 1.984-34.88 306.112 306.112 0 0 0-35.712-143.168l-64 78.016a23.808 23.808 0 0 1-15.36 8.96 238.08 238.08 0 0 1-172.224-34.752z m-19.584-215.936a275.584 275.584 0 0 0-37.76 2.368 189.888 189.888 0 0 0-0.576 14.272 187.584 187.584 0 0 0 188.032 186.688 149.056 149.056 0 0 0 24.32-1.28l68.224-83.2A305.472 305.472 0 0 0 89.6448 628.352zM365.4848 415.36a25.6 25.6 0 0 0-4.992 50.752c110.848 24.64 190.144 65.728 216.576 186.112a27.008 27.008 0 0 0 25.6 20.416 8.96 8.96 0 0 0 2.56-0.64 8.768 8.768 0 0 1 2.56-0.64 26.112 26.112 0 0 0 19.2-30.72c-26.816-122.496-105.472-192-254.912-224.448a24.832 24.832 0 0 0-6.592-0.768z m109.12-117.184a25.6 25.6 0 0 0-25.6 20.928 26.176 26.176 0 0 0 20.416 30.72c137.216 27.392 202.176 83.52 224 193.792a27.456 27.456 0 0 0 25.6 20.416h5.12a26.816 26.816 0 0 0 20.48-30.72c-25.6-131.072-107.52-203.456-265.152-234.688a26.88 26.88 0 0 0-4.864-0.384z" p-id="7717"></path></svg>