<?xml version="1.0" encoding="utf-8"?>
<!-- Generator: Adobe Illustrator 26.1.0, SVG Export Plug-In . SVG Version: 6.00 Build 0)  -->
<svg version="1.1" id="图层_1" xmlns="http://www.w3.org/2000/svg" xmlns:xlink="http://www.w3.org/1999/xlink" x="0px" y="0px"
	 viewBox="0 0 77.2 77.3" style="enable-background:new 0 0 77.2 77.3;" xml:space="preserve">
<style type="text/css">
	.st0{fill:#DBDBDB;}
</style>
<path class="st0" d="M5.5,33.5c0.6-0.6,1.5-0.9,2.2-0.2c0.6,0.4,0.6,1.5,0.2,2.2c-3,3.2-4.5,6.9-4.5,10.7
	c0,10.5,11.8,19.8,28.6,21.7c0.6,0,1.3,0.2,1.9,0.2L32.2,66c-0.6-0.6-0.4-1.7,0.2-2.2c0.6-0.6,1.7-0.4,2.1,0.2l3.7,4.7V69
	c0.2,0,0.2,0.2,0.2,0.2v0.6c0,0.2-0.2,0.2-0.4,0.4v0.6l-3.7,4.7c-0.4,0.4-0.9,0.6-1.3,0.6c-0.9-0.2-1.5-1-1.4-1.9
	c0-0.2,0.1-0.5,0.3-0.7l1.9-2.6c-0.9,0-1.7-0.2-2.6-0.2c-18.1-2.1-31-12.7-31-24.7C0.3,41.7,2.1,37.4,5.5,33.5L5.5,33.5L5.5,33.5z
	 M68.1,32.5c0.6-0.6,1.5-0.6,2.2,0c4.1,4.1,6.2,8.8,6.5,13.8c0,12-13.1,22.6-31,24.7h-0.2c-0.9,0-1.5-0.4-1.5-1.3
	c-0.2-0.9,0.4-1.7,1.3-1.7C61.6,66,73.4,56.8,73.4,46.2c0-4.1-1.9-8.2-5.4-11.6C67.4,34,67.4,33.1,68.1,32.5z M31.7,0l32,8.2h0.6
	c0.1,0,0.2,0.1,0.2,0.2l0,0.1v35.9l-0.2,0.2c0,0.1-0.1,0.2-0.2,0.2l-0.1,0L43.1,57.4l-0.2,0c-0.1,0-0.1-0.1-0.3-0.2
	c0,0.2-0.1,0.2-0.3,0.2h-0.6l-30.5-7.7h-0.4c0-0.1-0.1-0.2-0.2-0.2l-0.1,0l-0.2-0.2V14.6c0-0.1,0-0.2,0.1-0.3l0.2-0.2V14
	c0.1,0,0.2-0.1,0.2-0.2l0-0.1v-0.2c0-0.1,0.1-0.2,0.2-0.2l0.1,0L30.2,0C30.2,0,31.7,0,31.7,0z M22.9,37.6l-4.7,3.9
	c-0.6,0.4-0.9,1.5-0.2,2.1c0.4,0.2,0.9,0.4,1.3,0.4c0.4,0,0.6,0,0.9-0.2l4.7-3.9c0.6-0.4,0.9-1.5,0.2-2.1
	C24.6,37.2,23.6,37,22.9,37.6z M54.3,40.4c-0.2,0.9,0.2,1.7,1.1,1.9l5.2,1.7H61c0.7,0,1.3-0.4,1.5-1.1c0.2-0.9-0.2-1.7-1.1-1.9
	l-5.2-1.7C55.4,39.1,54.5,39.6,54.3,40.4z M41.9,36c-0.2,0.9,0.2,1.7,1.1,1.9l5.2,1.7h0.4c0.7,0,1.3-0.4,1.5-1.1
	c0.2-0.9-0.2-1.7-1.1-1.9l-5.2-1.7C43,34.7,42.1,35.1,41.9,36L41.9,36z M31.5,28.2c-0.8,0-1.5,0.6-1.5,1.4c0,0,0,0,0,0.1v2.6
	l-1.9,1.5c-0.6,0.4-0.9,1.5-0.2,2.2c0.2,0.4,0.6,0.7,1.1,0.6c0.4,0,0.6,0,0.9-0.2l1.9-1.5l2.4,0.6h0.4c0.7,0,1.3-0.4,1.5-1.1
	c0.2-0.9-0.2-1.7-1.1-1.9L33,31.8v-2.2C33,28.9,32.4,28.2,31.5,28.2C31.6,28.2,31.5,28.2,31.5,28.2L31.5,28.2L31.5,28.2z M31.5,15.6
	c-0.8,0-1.5,0.6-1.5,1.4c0,0,0,0,0,0.1v5.2c0,0.9,0.6,1.5,1.5,1.5c0.9,0,1.5-0.6,1.5-1.5v-5.2C33,16.3,32.4,15.6,31.5,15.6
	C31.6,15.6,31.5,15.6,31.5,15.6L31.5,15.6L31.5,15.6z M31.5,2.9c-0.8,0-1.5,0.6-1.5,1.4c0,0,0,0,0,0.1v5.2c0,0.9,0.6,1.5,1.5,1.5
	c0.9,0,1.5-0.6,1.5-1.5V4.4C33,3.5,32.4,2.9,31.5,2.9C31.6,2.9,31.5,2.9,31.5,2.9z"/>
</svg>
