<svg width="1010" height="899.9999999999999" xmlns="http://www.w3.org/2000/svg" class="icon">
 <defs>
  <style type="text/css"/>
 </defs>
 <g>
  <title>background</title>
  <rect fill="none" id="canvas_background" height="902" width="1012" y="-1" x="-1"/>
 </g>
 <g>
  <title>Layer 1</title>
  <path id="svg_1"  d="m939.572946,130.435605c0,-51.266 25.228,-96.635 63.94,-124.386c-4.102,-0.406 -116.105,-0.618 -120.314,-0.618l-753.945,0c-69.039,0 -125.004,55.965 -125.004,125.004c0,69.038 55.965,125.004 125.004,125.004l47.358,0l0,-160.436c0,-16.244 13.169,-29.413 29.413,-29.413l215.693,0c16.244,0 29.413,13.168 29.413,29.413l0,160.435l432.068,0c4.209,0 116.213,-0.211 120.314,-0.618c-38.712,-27.75 -63.94,-73.12 -63.94,-124.385z"/>
  <path id="svg_2" d="m305.244946,616.278605c5.538,-7.824 14.517,-7.824 20.055,0l54.26,55.103l0,-511.104c0,-11.067 -6.35,-20.039 -14.182,-20.039l-103.993,0c-7.832,0 -14.182,8.972 -14.182,20.039l0,511.4c0,1.559 0.13,0.131 0.368,1.586l57.674,-56.985z"/>
  <path id="svg_3"  d="m178.572946,319.166605l-49.319,0c-69.039,0 -125.004,55.966 -125.004,125.004c0,69.037 55.965,125.004 125.004,125.004l49.319,0l0,-250.008zm761,125.004c0,-51.265 25.228,-96.635 63.94,-124.386c-4.102,-0.406 -116.105,-0.618 -120.314,-0.618l-430.107,0l0,250.008l430.107,0c4.209,0 116.213,-0.212 120.314,-0.617c-38.712,-27.751 -63.94,-73.121 -63.94,-124.387z"/>
  <path id="svg_4"  d="m941.918946,770.295605c0,-51.266 25.228,-96.635 63.94,-124.387c-4.102,-0.406 -116.105,-0.617 -120.314,-0.617l-432.453,0l0,154.334l-112.54,-112.54c-11.485,-11.485 -30.109,-11.485 -41.595,0l-119.62,119.621a29.454,29.454 0 0 1 -0.763,-6.645l0,-154.77l-46.974,0c-69.039,0 -125.004,55.966 -125.004,125.004c0,69.037 55.965,125.004 125.004,125.004l753.945,0c4.209,0 116.213,-0.212 120.314,-0.618c-38.713,-27.75 -63.94,-73.12 -63.94,-124.386z"/>
 </g>
</svg>