<svg width="895" height="890" xmlns="http://www.w3.org/2000/svg" class="icon">
 <defs>
  <style type="text/css"/>
 </defs>
 <g>
  <title>background</title>
  <rect fill="none" id="canvas_background" height="892" width="897" y="-1" x="-1"/>
 </g>
 <g>
  <title>Layer 1</title>
  <path id="svg_1" d="m817,448c0,-52.4 32.9,-96.8 79,-114.5c-11,-43.2 -28,-83.9 -50.2,-121.3c-45.2,20.1 -99.8,11.9 -136.8,-25.2c-37,-37 -45.2,-91.7 -25.1,-136.8c-37.5,-22.2 -78.2,-39.2 -121.4,-50.2c-17.8,46.1 -62.2,79 -114.5,79c-52.4,0 -96.8,-32.9 -114.5,-79c-43.2,11 -83.9,28 -121.3,50.2c20.1,45.2 11.9,99.8 -25.1,136.8c-37,37 -91.7,45.2 -136.8,25.2c-22.3,37.4 -39.3,78.1 -50.3,121.3c46.1,17.8 79,62.2 79,114.5c0,52.4 -32.9,96.8 -79,114.5c11,43.2 28,83.9 50.2,121.3c45.2,-20.1 99.8,-11.9 136.8,25.2c37,37 45.2,91.7 25.1,136.8c37.5,22.2 78.2,39.2 121.4,50.2c17.8,-46.1 62.2,-79 114.5,-79c52.4,0 96.8,32.9 114.5,79c43.2,-11 83.9,-28 121.3,-50.2c-20.1,-45.2 -11.9,-99.8 25.1,-136.8c37,-37 91.7,-45.2 136.8,-25.2c22.3,-37.4 39.3,-78.1 50.3,-121.3c-46.1,-17.7 -79,-62.1 -79,-114.5zm-369,123c-67.9,0 -123,-55.1 -123,-123s55.1,-123 123,-123s123,55.1 123,123s-55.1,123 -123,123z"/>
 </g>
</svg>