<?xml version="1.0" encoding="utf-8"?>
<!-- Generator: Adobe Illustrator 26.1.0, SVG Export Plug-In . SVG Version: 6.00 Build 0)  -->
<svg version="1.1" id="图层_1" xmlns="http://www.w3.org/2000/svg" xmlns:xlink="http://www.w3.org/1999/xlink" x="0px" y="0px"
	 viewBox="0 0 177.5 178.7" style="enable-background:new 0 0 177.5 178.7;" xml:space="preserve">
<path d="M30.5,77.7c0.1-6.8,5-12.7,11.7-14l5-1.1c1.1,2.2,2.9,4,5.2,5.2c5.8,2.9,12.7,0.6,15.6-5.2l5,1.1c6.7,1.3,11.6,7.1,11.7,14
	v30.8l32.7-32.7c1-1,2.6-1,3.6,0s1,2.6,0,3.6l-36.2,36.2v0.3c0,2-0.7,3.8-1.7,5.3h13.7c-0.7-0.9-1.1-2.1-1.1-3.3
	c0-3.1,2.5-5.5,5.5-5.5h49.2c8.2,0,14.8-6.7,14.7-14.8V27.3c0-8.2-6.7-14.8-14.8-14.7H26.7c-7.7,0.1-14,5.9-14.7,13.4v73
	c0.5,5.8,4.4,10.8,9.9,12.7c1.8,0.6,3,2.3,3,4.2c0,0.8-0.2,1.7-0.5,2.4c-0.5,1.1-1.2,1.9-2.1,2.6c1.1,0.3,2.3,0.4,3.5,0.4h6.4
	c-1.1-1.5-1.7-3.4-1.7-5.4V77.7z M45.7,43.4c0.2-6.3,5.3-11.4,11.6-11.6c6.5-0.2,12,5.1,12.1,11.6c1.9,0,2,2.6,1.8,4.5
	c-0.3,2-1.5,3.8-3.2,4.9c-4.3,13.4-16.7,13.4-21.1,0c-1.7-1.1-2.8-2.9-3.1-4.9C43.5,46,43.8,43.4,45.7,43.4L45.7,43.4z M98.5,138.9
	H79.2c-9.3,0-16.9,7.6-16.9,16.9v22.3h53.2v-22.3C115.4,146.5,107.9,139,98.5,138.9z M159.8,138.9h-19.3c-9.3,0-16.9,7.6-16.9,16.9
	v22.3h53.2v-22.3C176.8,146.5,169.2,138.9,159.8,138.9L159.8,138.9z"/>
<path d="M12.1,107.5V99c0-0.4-0.1-0.9-0.1-1.3V27.4c0-0.5,0-1,0.1-1.4v-3.2C12.1,15.1,18.3,9,25.9,9h129.7c7.6,0,13.8,6.2,13.8,13.8
	v84.7c0,7.6-6.2,13.8-13.8,13.8H96.7c1,1.4,2.6,2.2,4.4,2.2h49.3c14.3,0,25.9-11.6,25.9-25.9V27.4c0-14.3-11.6-25.9-25.9-25.9H26.9
	C12.6,1.5,1,13.1,1,27.4v70.3c-0.1,10.3,6,19.6,15.4,23.7c2,0.9,4.2,0.6,5.9-0.5C16.4,119.3,12.1,113.9,12.1,107.5L12.1,107.5z
	 M54.1,155.8c0-9.3-7.6-16.9-16.9-16.9H17.8c-9,0-16.4,7.1-16.9,15.9v23.3h53.2L54.1,155.8L54.1,155.8z"/>
<path d="M169.4,107.5V22.8c0-7.6-6.2-13.8-13.8-13.8H25.9c-7.6,0-13.8,6.2-13.8,13.8v3.2c0.7-7.5,7-13.4,14.7-13.4h123.6
	c8.2,0,14.8,6.6,14.8,14.7v70.4c0,8.2-6.6,14.8-14.7,14.8h-49.3c-3,0-5.5,2.4-5.5,5.5c0,1.2,0.4,2.4,1.1,3.3h58.8
	C163.2,121.3,169.4,115.1,169.4,107.5z M24.5,118.3c0.3-0.8,0.5-1.6,0.5-2.4c0-1.9-1.2-3.6-3-4.2c-5.5-1.9-9.4-6.9-9.9-12.7v8.5
	c0,6.4,4.4,11.8,10.3,13.4C23.3,120.2,24,119.4,24.5,118.3L24.5,118.3z"/>
</svg>
