<?xml version="1.0" encoding="utf-8"?>
<!-- Generator: Adobe Illustrator 26.1.0, SVG Export Plug-In . SVG Version: 6.00 Build 0)  -->
<svg version="1.1" id="图层_1" xmlns="http://www.w3.org/2000/svg" xmlns:xlink="http://www.w3.org/1999/xlink" x="0px" y="0px"
	 viewBox="0 0 40.7 40.9" style="enable-background:new 0 0 40.7 40.9;" xml:space="preserve">
<path d="M20.4,40.6c11.1,0,20.2-9.1,20.2-20.2S31.5,0.2,20.4,0.2C9.2,0.2,0.2,9.3,0.2,20.4C0.2,31.6,9.2,40.6,20.4,40.6
	C20.4,40.6,20.4,40.6,20.4,40.6z M24.7,17l-8.8-8.6c0,0,1.8-0.7,4.3-0.7s4.3,0.7,4.3,0.7V17H24.7L24.7,17z M25.9,21.2V9
	c0,0,1.8,0.7,3.6,2.5c1.8,1.8,2.5,3.6,2.5,3.6L25.9,21.2L25.9,21.2z M23.8,24.7l8.6-8.8c0,0,0.7,1.8,0.7,4.3c0,2.7-0.7,4.3-0.7,4.3
	h-8.6V24.7L23.8,24.7z M19.6,25.8h12.2c0,0-0.7,1.8-2.5,3.6c-1.8,1.9-3.4,2.7-3.4,2.7L19.6,25.8L19.6,25.8z M16.1,23.7l8.8,8.6
	c0,0-1.8,0.7-4.3,0.7s-4.3-0.7-4.3-0.7v-8.6H16.1L16.1,23.7z M15,19.7v12.2c0,0-1.8-0.7-3.6-2.5c-1.8-1.8-2.5-3.6-2.5-3.6L15,19.7
	L15,19.7z M17.1,16.1l-8.6,8.8c0,0-0.7-1.8-0.7-4.3c0-2.7,0.7-4.3,0.7-4.3h8.6L17.1,16.1L17.1,16.1z M21.1,14.9H8.9
	c0,0,0.7-1.8,2.5-3.6C13.2,9.6,15,8.8,15,8.8L21.1,14.9L21.1,14.9z"/>
</svg>
