<?xml version="1.0" encoding="utf-8"?>
<!-- Generator: Adobe Illustrator 26.1.0, SVG Export Plug-In . SVG Version: 6.00 Build 0)  -->
<svg version="1.1" id="图层_1" xmlns="http://www.w3.org/2000/svg" xmlns:xlink="http://www.w3.org/1999/xlink" x="0px" y="0px"
	 viewBox="0 0 47.4 39" style="enable-background:new 0 0 47.4 39;" xml:space="preserve">
<path d="M4.5,0.3h38.4c2.4,0,4.3,1.9,4.3,4.3v29.9c0,2.4-1.9,4.3-4.3,4.3H4.5c-2.4,0-4.3-1.9-4.3-4.3V4.5C0.2,2.2,2.1,0.3,4.5,0.3
	L4.5,0.3z M13,17.3c2.4,0,4.3-1.9,4.3-4.3S15.4,8.8,13,8.8c0,0,0,0,0,0c-2.4,0-4.3,1.9-4.3,4.3C8.7,15.4,10.6,17.3,13,17.3z
	 M13,19.5c-4.7,0-8.5,3.8-8.5,8.5c0,1.2,1,2.1,2.1,2.1h12.8c1.2,0,2.1-1,2.1-2.1C21.5,23.3,17.7,19.5,13,19.5z M27.9,13.1
	c-1.2,0-2.1,1-2.1,2.1c0,1.2,1,2.1,2.1,2.1h12.8c1.2,0,2.1-1,2.1-2.1c0-1.2-1-2.1-2.1-2.1H27.9z M27.9,21.6c-1.2,0-2.1,1-2.1,2.1
	c0,1.2,1,2.1,2.1,2.1h12.8c1.2,0,2.1-1,2.1-2.1c0-1.2-1-2.1-2.1-2.1H27.9z"/>
</svg>
