<?xml version="1.0" encoding="utf-8"?>
<!-- Generator: Adobe Illustrator 26.1.0, SVG Export Plug-In . SVG Version: 6.00 Build 0)  -->
<svg version="1.1" id="图层_1" xmlns="http://www.w3.org/2000/svg" xmlns:xlink="http://www.w3.org/1999/xlink" x="0px" y="0px"
	 viewBox="0 0 48 44.5" style="enable-background:new 0 0 48 44.5;" xml:space="preserve">
<path d="M6,32.9c0,0.8,0.3,1.5,0.9,2.1s1.3,0.9,2.2,0.9h11.9v6H6c-0.8,0-1.6-0.2-2.3-0.5s-1.4-0.7-1.9-1.3c-0.5-0.5-1-1.2-1.3-1.9
	C0.2,37.5,0,36.8,0,35.9V6c0-0.8,0.2-1.6,0.5-2.3s0.7-1.4,1.3-1.9s1.2-1,1.9-1.3S5.1,0,6,0h35.9c0.8,0,1.6,0.2,2.3,0.5
	s1.4,0.7,1.9,1.3s1,1.2,1.3,1.9s0.5,1.5,0.5,2.3v8.8l-6,0c-0.1-0.8-0.4-1.5-0.9-2c-0.6-0.6-1.2-0.8-2.1-0.8H9
	c-0.9,0-1.6,0.3-2.2,0.9S6,14.1,6,15C6,15,6,32.9,6,32.9z M47.7,23.5c0.2,0.3,0.3,0.7,0.4,1.1c0,0.4-0.1,0.9-0.5,1.3
	c-0.3,0.4-0.6,0.8-0.9,1l-0.4,0.4l-5-4.5c0.2-0.2,0.4-0.4,0.7-0.7s0.5-0.5,0.7-0.6c0.4-0.4,0.9-0.6,1.4-0.6c0.5,0,0.9,0.2,1.3,0.3
	c0.4,0.2,0.8,0.5,1.2,0.9S47.4,23,47.7,23.5z M28.7,37c0.1-0.1,0.3-0.3,0.7-0.8c0.3-0.4,0.8-0.9,1.3-1.5s1.1-1.3,1.7-2
	s1.3-1.4,1.9-2.2c1.5-1.7,3.2-3.6,5.1-5.7l5.1,4.5c-1.9,2.1-3.6,4.1-5.1,5.8c-0.6,0.7-1.3,1.5-1.9,2.2c-0.6,0.7-1.2,1.4-1.7,1.9
	c-0.5,0.6-1,1-1.3,1.4s-0.5,0.6-0.6,0.6c-0.3,0.4-0.7,0.7-1.2,1c-0.2,0.2-0.6,0.3-1,0.5c-0.4,0.2-0.9,0.4-1.4,0.6
	c-0.5,0.2-1,0.4-1.4,0.5c-0.4,0.1-0.8,0.2-1,0.3c-0.8,0.2-1.2-0.2-1.1-1c0-0.2,0.1-0.6,0.2-1c0.1-0.5,0.2-0.9,0.3-1.4
	c0.1-0.5,0.2-0.9,0.3-1.4s0.2-0.7,0.3-0.9C28.1,37.9,28.4,37.5,28.7,37z"/>
</svg>
