<?xml version="1.0" standalone="no"?><!DOCTYPE svg PUBLIC "-//W3C//DTD SVG 1.1//EN" "http://www.w3.org/Graphics/SVG/1.1/DTD/svg11.dtd"><svg t="1687746112403" class="icon" viewBox="0 0 1024 1024" version="1.1" xmlns="http://www.w3.org/2000/svg" p-id="19490" xmlns:xlink="http://www.w3.org/1999/xlink" width="200" height="200"><path d="M512 0C229.235007 0 0 229.22489 0 512s229.22489 512 512 512 512-229.22489 512-512S794.764993 0 512 0zM339.026617 252.140297a58.841504 58.841504 0 1 1-58.82127 58.790918 58.831387 58.831387 0 0 1 58.82127-58.790918z m21.46865 519.719406l-11.128895-175.512794h-22.844586l-8.96382 175.512794h-53.833501l11.887684-205.945264-37.210979-28.044816 28.3888-152.991958h61.563025l-4.562847 7.78011 6.070306 12.393542-13.253502 94.767601 20.719979 21.063964v1.669334l0.78914-0.819491 0.829608 0.819491v-1.669334l20.709863-21.063964-13.293971-94.767601 6.070306-12.393542-4.603316-7.78011h62.342048l138.220878 6.555931-26.496887 46.589602-123.065347 2.023436 4.259332 125.867805 7.871164 205.945264z m209.992136-255.96459l33.285514-95.34428 5.058589-14.51815 10.511747 11.209833 30.351532 32.324382 44.424527-76.374573 16.187484 9.317921-50.697177 87.240421-6.353587 10.835497-8.56925-9.10546-28.409034-30.290829-32.041101 91.874088-3.90523 11.07831-9.914834-6.262533-46.306322-29.137471-48.946904 17.077795-6.151244-17.63424 53.246705-18.565021 4.188511-1.456873 3.814176 2.387654z m88.353311 255.96459H478.795424v-31.818523H658.830597z m126.778351-134.335882H592.138163v92.713814h-51.36491v-92.703697h-97.124904v-37.362736h304.527042V305.933329H428.250005v-37.433556h357.36906z" fill="#515151" p-id="19491"></path></svg>