<?xml version="1.0" encoding="utf-8"?>
<!-- Generator: Adobe Illustrator 26.1.0, SVG Export Plug-In . SVG Version: 6.00 Build 0)  -->
<svg version="1.1" id="图层_1" xmlns="http://www.w3.org/2000/svg" xmlns:xlink="http://www.w3.org/1999/xlink" x="0px" y="0px"
	 viewBox="0 0 38 39.8" style="enable-background:new 0 0 38 39.8;" xml:space="preserve">
<path class="st0" d="M11.1,39.4c0,0-2.2-2.5-4.2-4.5c-2.2-0.6-4.4-1.2-6.6-1.7l4.5-7.9c2.4,3.1,6.5,5.8,10.4,6.8L11.1,39.4z
	 M31.6,34.5c-2,2-4.6,4.9-4.6,4.9l-4.1-7.3c3.9-1,7.7-3.6,10.1-6.8l4.8,7.9C37.8,33.2,34.5,33.7,31.6,34.5z M19,0.4
	c-7.8,0-14.5,7.2-14.5,15.1S11.2,29.8,19,29.8c7.8,0,14.5-6.8,14.5-14.7S26.8,0.4,19,0.4z M27.4,14.5l-2.5,2.7
	c-0.3,0.4-0.5,0.9-0.4,1.4v0.1l0.6,3.6c0.1,0.4,0,0.7-0.2,1c-0.4,0.8-1.4,1.1-2.2,0.7l-2.9-1.6c-0.5-0.3-1-0.3-1.5,0.1l-2.8,1.5
	c-0.3,0.2-0.7,0.2-1,0.2c-0.9-0.1-1.5-1-1.3-1.9l0.6-3.8c0.1-0.4-0.1-0.9-0.4-1.2l-2.6-2.7c-0.2-0.3-0.4-0.6-0.4-0.9
	c-0.1-0.9,0.5-1.7,1.4-1.9l3.3-0.5c0.5,0,1-0.4,1.2-0.8l1.5-3.2c0.3-0.5,0.8-0.9,1.5-0.9c0.6,0,1.2,0.4,1.5,0.9l1.5,3.2
	c0.2,0.5,0.7,0.8,1.2,0.9l3.3,0.5c0.3,0.1,0.7,0.2,0.9,0.4C28,12.8,28,13.8,27.4,14.5z"/>
</svg>
