<?xml version="1.0" encoding="utf-8"?>
<!-- Generator: Adobe Illustrator 26.1.0, SVG Export Plug-In . SVG Version: 6.00 Build 0)  -->
<svg version="1.1" id="图层_1" xmlns="http://www.w3.org/2000/svg" xmlns:xlink="http://www.w3.org/1999/xlink" x="0px" y="0px"
	 viewBox="0 0 45.2 48" style="enable-background:new 0 0 45.2 48;" xml:space="preserve">
<path class="st0" d="M22.6,0.2c8.8,0,15.9,7.1,15.9,15.9c0,0.2,0,0.4,0,0.6H35c0-0.2,0-0.4,0-0.6c0-6.9-5.6-12.4-12.4-12.4
	c-6.9,0-12.4,5.6-12.4,12.4c0,0.2,0,0.4,0,0.6H6.7c0-0.2,0-0.4,0-0.6C6.6,7.4,13.8,0.2,22.6,0.2z"/>
<path class="st0" d="M1.6,16.2h42.1c0.7,0,1.2,0.4,1.2,1.2l0,26.1c0,2.4-2,4.3-4.3,4.3H4.7c-2.4,0-4.3-2-4.3-4.3l0-26.1
	C0.4,16.6,0.9,16.2,1.6,16.2z M19.5,40.7h6.1l-1.4-8.3v0c1.8-0.7,3-2.4,3-4.4c0-2.6-2.1-4.7-4.7-4.7c-2.6,0-4.7,2.1-4.7,4.7
	c0,2,1.2,3.7,3,4.4v0C20.9,32.3,19.5,40.7,19.5,40.7z"/>
</svg>
