<?xml version="1.0" standalone="no"?><!DOCTYPE svg PUBLIC "-//W3C//DTD SVG 1.1//EN" "http://www.w3.org/Graphics/SVG/1.1/DTD/svg11.dtd"><svg t="1709894331485" class="icon" viewBox="0 0 1024 1024" version="1.1" xmlns="http://www.w3.org/2000/svg" p-id="1510" xmlns:xlink="http://www.w3.org/1999/xlink" width="1024" height="1024"><path d="M884.224 345.6a64 64 0 0 1 64 64v489.472a64 64 0 0 1-128 0V409.6a64 64 0 0 1 64-64z m-242.688 190.976a64 64 0 0 1 64 64v298.496a64 64 0 0 1-128 0V600.576a64 64 0 0 1 64-64zM384.512 458.24a64 64 0 0 1 64 64v376.32a64 64 0 0 1-128 0V522.24a64 64 0 0 1 64-64zM139.264 594.944a64 64 0 0 1 64 64v239.616a64 64 0 0 1-128 0v-239.616a64 64 0 0 1 64-64zM877.056 60.416c35.328 0 64 28.672 63.488 64.512a64 64 0 0 1-64 64c-6.656 0-12.8-2.048-18.944-4.096l-144.896 134.656a63.232 63.232 0 0 1-61.952 53.76 62.592 62.592 0 0 1-48.128-22.528L435.2 317.44a63.616 63.616 0 0 1-44.032 17.92 62.4 62.4 0 0 1-37.888-13.824l-144.896 87.04c-6.144 29.184-30.72 52.224-61.952 52.224a64 64 0 0 1 0-128c14.336 0 27.136 5.632 37.888 13.824l145.408-87.04c6.144-29.184 30.72-52.224 61.952-52.224 29.184 0 52.224 19.968 60.416 46.08l144.896 28.672a63.808 63.808 0 0 1 56.32-34.816c12.8 0 24.064 4.608 33.792 10.752l128-123.904c-0.512-3.072-2.048-6.144-2.048-9.728a64 64 0 0 1 64-64z" fill="#000000" fill-opacity=".85" p-id="1511"></path></svg>