<?xml version="1.0" standalone="no"?><!DOCTYPE svg PUBLIC "-//W3C//DTD SVG 1.1//EN" "http://www.w3.org/Graphics/SVG/1.1/DTD/svg11.dtd"><svg t="1709894440412" class="icon" viewBox="0 0 1024 1024" version="1.1" xmlns="http://www.w3.org/2000/svg" p-id="3565" xmlns:xlink="http://www.w3.org/1999/xlink" width="1024" height="1024"><path d="M375.9 888H217.8V136h560v405c0 8.8 7.2 16 16 16h40c8.8 0 16-7.2 16-16V96c0-17.6-14.4-32-32-32h-640c-17.6 0-32 14.4-32 32v832c0 17.6 14.4 32 32 32H376c8.8 0 16-7.2 16-16v-40c-0.1-8.8-7.2-16-16.1-16z" p-id="3566"></path><path d="M913.3 764.2C874.2 721.4 787 641 682.9 641c-113.7 0-213 95.8-248 134-8 8.7-7.9 22.1 0.3 30.6C469.7 841.8 565.6 930 678.4 930c103.6 0 193-74.4 233.6-114.6 14.1-13.9 14.7-36.5 1.3-51.2zM676 862.5c-42.5 0-77-34.5-77-77s34.5-77 77-77 77 34.5 77 77-34.5 77-77 77zM591 350c0-84.4-68.1-152.5-152.5-152.5S286 265.6 286 350s68.1 152.5 152.5 152.5S591 434.4 591 350zM434.8 468.6c-14.9 0-26.9-12.1-26.9-26.9s12.1-26.9 26.9-26.9c14.9 0 26.9 12.1 26.9 26.9s-12 26.9-26.9 26.9z m44.5-200.3L463 369.1c-5.4 32.7-49 32.7-51.7 0l-10.9-100.8c-5.5-38.1 81.7-38.1 78.9 0zM301 573c-8.8 0-16 7.2-16 16v28c0 8.8 7.2 16 16 16h229c8.8 0 16-7.2 16-16v-28c0-8.8-7.2-16-16-16H301zM434 728v-28c0-8.8-7.2-16-16-16H301c-8.8 0-16 7.2-16 16v28c0 8.8 7.2 16 16 16h117c8.8 0 16-7.2 16-16z" p-id="3567"></path></svg>